<mxfile host="drawio-plugin" modified="2024-06-05T17:00:02.485Z" agent="Mozilla/5.0 (X11; Linux x86_64) AppleWebKit/537.36 (KHTML, like Gecko) Chrome/122.0.0.0 Safari/537.36" etag="comI0D7BWRGDfifhz5-c" version="22.1.22" type="embed">
  <diagram id="ERxrzM34JgP0kjhDalQf" name="Page-1">
    <mxGraphModel dx="1025" dy="452" grid="1" gridSize="10" guides="1" tooltips="1" connect="1" arrows="1" fold="1" page="0" pageScale="1" pageWidth="827" pageHeight="1169" background="#EEEEEE" math="0" shadow="0">
      <root>
        <mxCell id="0" />
        <mxCell id="1" parent="0" />
        <mxCell id="130" style="edgeStyle=orthogonalEdgeStyle;rounded=0;orthogonalLoop=1;jettySize=auto;html=1;strokeColor=#000000;strokeWidth=2;fontColor=#000000;endArrow=none;endFill=0;" parent="1" target="129" edge="1">
          <mxGeometry relative="1" as="geometry">
            <mxPoint x="360" y="320" as="sourcePoint" />
          </mxGeometry>
        </mxCell>
        <mxCell id="111" value="Cliente" style="shape=umlActor;verticalLabelPosition=bottom;verticalAlign=top;html=1;strokeColor=#000000;strokeWidth=2;fontColor=#000000;fillColor=#FFFFFF;" parent="1" vertex="1">
          <mxGeometry x="310" y="295" width="30" height="60" as="geometry" />
        </mxCell>
        <mxCell id="120" value="Richiesta preventivo" style="ellipse;whiteSpace=wrap;html=1;strokeColor=#000000;strokeWidth=2;fontColor=#000000;fillColor=#FFFFFF;" parent="1" vertex="1">
          <mxGeometry x="710" y="285" width="140" height="70" as="geometry" />
        </mxCell>
        <mxCell id="144" style="edgeStyle=orthogonalEdgeStyle;rounded=0;orthogonalLoop=1;jettySize=auto;html=1;strokeColor=#191919;strokeWidth=2;dashed=1;dashPattern=1 1;" parent="1" source="129" target="120" edge="1">
          <mxGeometry relative="1" as="geometry" />
        </mxCell>
        <mxCell id="129" value="Consulta catalogo" style="ellipse;whiteSpace=wrap;html=1;strokeColor=#000000;strokeWidth=2;fontColor=#000000;fillColor=#FFFFFF;" parent="1" vertex="1">
          <mxGeometry x="460" y="285" width="140" height="70" as="geometry" />
        </mxCell>
        <mxCell id="131" value="Registra" style="ellipse;whiteSpace=wrap;html=1;strokeColor=#000000;strokeWidth=2;fontColor=#000000;fillColor=#FFFFFF;" parent="1" vertex="1">
          <mxGeometry x="860" y="320" width="140" height="70" as="geometry" />
        </mxCell>
        <mxCell id="138" value="Segretario" style="shape=umlActor;verticalLabelPosition=bottom;verticalAlign=top;html=1;strokeColor=#000000;strokeWidth=2;fontColor=#000000;fillColor=#FFFFFF;" parent="1" vertex="1">
          <mxGeometry x="310" y="540" width="30" height="60" as="geometry" />
        </mxCell>
        <mxCell id="139" value="Impiegato" style="shape=umlActor;verticalLabelPosition=bottom;verticalAlign=top;html=1;strokeColor=#000000;strokeWidth=2;fontColor=#000000;fillColor=#FFFFFF;" parent="1" vertex="1">
          <mxGeometry x="310" y="420" width="30" height="60" as="geometry" />
        </mxCell>
        <mxCell id="147" style="edgeStyle=orthogonalEdgeStyle;rounded=0;orthogonalLoop=1;jettySize=auto;html=1;strokeColor=#191919;strokeWidth=2;dashed=1;dashPattern=1 1;" parent="1" source="146" target="120" edge="1">
          <mxGeometry relative="1" as="geometry" />
        </mxCell>
        <mxCell id="146" value="Login" style="ellipse;whiteSpace=wrap;html=1;strokeColor=#000000;strokeWidth=2;fontColor=#000000;fillColor=#FFFFFF;" parent="1" vertex="1">
          <mxGeometry x="710" y="405" width="140" height="70" as="geometry" />
        </mxCell>
        <mxCell id="148" value="&amp;lt;&amp;lt;include&amp;gt;&amp;gt;" style="text;html=1;strokeColor=none;fillColor=none;align=center;verticalAlign=middle;whiteSpace=wrap;rounded=0;fontColor=#3B3B3B;" parent="1" vertex="1">
          <mxGeometry x="710" y="370" width="60" height="30" as="geometry" />
        </mxCell>
        <mxCell id="149" style="edgeStyle=orthogonalEdgeStyle;rounded=0;orthogonalLoop=1;jettySize=auto;html=1;exitX=0.5;exitY=1;exitDx=0;exitDy=0;strokeColor=#191919;strokeWidth=2;fontColor=#3B3B3B;endArrow=none;endFill=0;" parent="1" source="146" target="146" edge="1">
          <mxGeometry relative="1" as="geometry" />
        </mxCell>
        <mxCell id="153" value="" style="endArrow=classic;html=1;rounded=0;strokeColor=#191919;strokeWidth=2;fontColor=#3B3B3B;entryX=1;entryY=0;entryDx=0;entryDy=0;dashed=1;dashPattern=1 1;" parent="1" source="131" target="146" edge="1">
          <mxGeometry width="50" height="50" relative="1" as="geometry">
            <mxPoint x="860" y="390" as="sourcePoint" />
            <mxPoint x="880" y="250" as="targetPoint" />
          </mxGeometry>
        </mxCell>
        <mxCell id="154" value="&amp;lt;&amp;lt;extends&amp;gt;&amp;gt;" style="text;html=1;strokeColor=none;fillColor=none;align=center;verticalAlign=middle;whiteSpace=wrap;rounded=0;fontColor=#3B3B3B;" parent="1" vertex="1">
          <mxGeometry x="850" y="400" width="60" height="30" as="geometry" />
        </mxCell>
        <mxCell id="155" value="&amp;lt;&amp;lt;extends&amp;gt;&amp;gt;" style="text;html=1;strokeColor=none;fillColor=none;align=center;verticalAlign=middle;whiteSpace=wrap;rounded=0;fontColor=#3B3B3B;" parent="1" vertex="1">
          <mxGeometry x="620" y="290" width="60" height="30" as="geometry" />
        </mxCell>
        <mxCell id="156" value="Finalizza preventivo" style="ellipse;whiteSpace=wrap;html=1;strokeColor=#000000;strokeWidth=2;fontColor=#000000;fillColor=#FFFFFF;" parent="1" vertex="1">
          <mxGeometry x="460" y="405" width="140" height="70" as="geometry" />
        </mxCell>
        <mxCell id="157" style="edgeStyle=orthogonalEdgeStyle;rounded=0;orthogonalLoop=1;jettySize=auto;html=1;strokeColor=#000000;strokeWidth=2;fontColor=#000000;endArrow=none;endFill=0;entryX=0;entryY=0.5;entryDx=0;entryDy=0;" parent="1" target="156" edge="1">
          <mxGeometry relative="1" as="geometry">
            <mxPoint x="360" y="440" as="sourcePoint" />
            <mxPoint x="470" y="330" as="targetPoint" />
          </mxGeometry>
        </mxCell>
        <mxCell id="161" value="Gestisci preventivo" style="ellipse;whiteSpace=wrap;html=1;strokeColor=#000000;strokeWidth=2;fontColor=#000000;fillColor=#FFFFFF;" parent="1" vertex="1">
          <mxGeometry x="460" y="500" width="140" height="70" as="geometry" />
        </mxCell>
        <mxCell id="168" value="" style="endArrow=none;html=1;rounded=0;strokeColor=#191919;strokeWidth=2;fontColor=#3B3B3B;entryX=0;entryY=0.5;entryDx=0;entryDy=0;" parent="1" target="161" edge="1">
          <mxGeometry width="50" height="50" relative="1" as="geometry">
            <mxPoint x="360" y="440" as="sourcePoint" />
            <mxPoint x="500" y="520" as="targetPoint" />
          </mxGeometry>
        </mxCell>
        <mxCell id="169" value="Visualizza preventivi" style="ellipse;whiteSpace=wrap;html=1;strokeColor=#000000;strokeWidth=2;fontColor=#000000;fillColor=#FFFFFF;" parent="1" vertex="1">
          <mxGeometry x="460" y="590" width="140" height="70" as="geometry" />
        </mxCell>
        <mxCell id="173" value="Conferma preventivo" style="ellipse;whiteSpace=wrap;html=1;strokeColor=#000000;strokeWidth=2;fontColor=#000000;fillColor=#FFFFFF;" parent="1" vertex="1">
          <mxGeometry x="710" y="190" width="140" height="70" as="geometry" />
        </mxCell>
        <mxCell id="175" value="" style="endArrow=classic;html=1;rounded=0;dashed=1;dashPattern=1 1;strokeColor=#191919;strokeWidth=2;fontColor=#3B3B3B;entryX=0;entryY=0.5;entryDx=0;entryDy=0;exitX=1;exitY=0.5;exitDx=0;exitDy=0;" parent="1" source="186" target="173" edge="1">
          <mxGeometry width="50" height="50" relative="1" as="geometry">
            <mxPoint x="760" y="310" as="sourcePoint" />
            <mxPoint x="810" y="260" as="targetPoint" />
          </mxGeometry>
        </mxCell>
        <mxCell id="176" value="&amp;lt;&amp;lt;extends&amp;gt;&amp;gt;" style="text;html=1;strokeColor=none;fillColor=none;align=center;verticalAlign=middle;whiteSpace=wrap;rounded=0;fontColor=#3B3B3B;" parent="1" vertex="1">
          <mxGeometry x="620" y="200" width="60" height="30" as="geometry" />
        </mxCell>
        <mxCell id="177" value="" style="endArrow=none;html=1;rounded=0;strokeColor=#191919;strokeWidth=2;fontColor=#3B3B3B;entryX=0;entryY=0.5;entryDx=0;entryDy=0;" parent="1" target="169" edge="1">
          <mxGeometry width="50" height="50" relative="1" as="geometry">
            <mxPoint x="360" y="570" as="sourcePoint" />
            <mxPoint x="460" y="570" as="targetPoint" />
          </mxGeometry>
        </mxCell>
        <mxCell id="180" value="Inserisci modello" style="ellipse;whiteSpace=wrap;html=1;strokeColor=#000000;strokeWidth=2;fontColor=#000000;fillColor=#FFFFFF;" parent="1" vertex="1">
          <mxGeometry x="460" y="670" width="140" height="70" as="geometry" />
        </mxCell>
        <mxCell id="181" value="Inserisci optional" style="ellipse;whiteSpace=wrap;html=1;strokeColor=#000000;strokeWidth=2;fontColor=#000000;fillColor=#FFFFFF;" parent="1" vertex="1">
          <mxGeometry x="710" y="670" width="140" height="70" as="geometry" />
        </mxCell>
        <mxCell id="182" value="" style="endArrow=none;html=1;rounded=0;strokeColor=#191919;strokeWidth=2;fontColor=#3B3B3B;entryX=0;entryY=0.5;entryDx=0;entryDy=0;" parent="1" target="180" edge="1">
          <mxGeometry width="50" height="50" relative="1" as="geometry">
            <mxPoint x="360" y="570" as="sourcePoint" />
            <mxPoint x="470" y="635" as="targetPoint" />
          </mxGeometry>
        </mxCell>
        <mxCell id="183" value="" style="endArrow=classic;html=1;rounded=0;strokeColor=#191919;strokeWidth=2;fontColor=#3B3B3B;entryX=1;entryY=0.5;entryDx=0;entryDy=0;exitX=0;exitY=0.5;exitDx=0;exitDy=0;dashed=1;dashPattern=1 1;" parent="1" source="181" target="180" edge="1">
          <mxGeometry width="50" height="50" relative="1" as="geometry">
            <mxPoint x="720" y="660" as="sourcePoint" />
            <mxPoint x="770" y="610" as="targetPoint" />
          </mxGeometry>
        </mxCell>
        <mxCell id="184" value="&amp;lt;&amp;lt;extends&amp;gt;&amp;gt;" style="text;html=1;strokeColor=none;fillColor=none;align=center;verticalAlign=middle;whiteSpace=wrap;rounded=0;fontColor=#3B3B3B;" parent="1" vertex="1">
          <mxGeometry x="630" y="680" width="60" height="30" as="geometry" />
        </mxCell>
        <mxCell id="185" value="&lt;font style=&quot;font-size: 16px;&quot;&gt;Concessionario&lt;/font&gt;" style="text;html=1;strokeColor=none;fillColor=none;align=center;verticalAlign=middle;whiteSpace=wrap;rounded=0;fontColor=#3B3B3B;" parent="1" vertex="1">
          <mxGeometry x="670" y="130" width="60" height="30" as="geometry" />
        </mxCell>
        <mxCell id="186" value="Visualizza ordini" style="ellipse;whiteSpace=wrap;html=1;strokeColor=#000000;strokeWidth=2;fontColor=#000000;fillColor=#FFFFFF;" parent="1" vertex="1">
          <mxGeometry x="460" y="190" width="140" height="70" as="geometry" />
        </mxCell>
        <mxCell id="188" value="" style="endArrow=none;html=1;rounded=0;strokeColor=#191919;strokeWidth=2;fontSize=16;fontColor=#0D0D0D;entryX=0;entryY=0.5;entryDx=0;entryDy=0;" parent="1" target="186" edge="1">
          <mxGeometry width="50" height="50" relative="1" as="geometry">
            <mxPoint x="360" y="320" as="sourcePoint" />
            <mxPoint x="450" y="240" as="targetPoint" />
          </mxGeometry>
        </mxCell>
        <mxCell id="189" value="" style="html=1;fillColor=#FFFFFF;strokeWidth=2;strokeColor=#000000;" parent="1" vertex="1">
          <mxGeometry x="400" y="80" width="860" height="780" as="geometry" />
        </mxCell>
        <mxCell id="190" style="edgeStyle=orthogonalEdgeStyle;rounded=0;orthogonalLoop=1;jettySize=auto;html=1;strokeColor=#000000;strokeWidth=2;fontColor=#000000;endArrow=none;endFill=0;" parent="1" target="194" edge="1">
          <mxGeometry relative="1" as="geometry">
            <mxPoint x="360" y="320" as="sourcePoint" />
          </mxGeometry>
        </mxCell>
        <mxCell id="191" value="Cliente" style="shape=umlActor;verticalLabelPosition=bottom;verticalAlign=top;html=1;strokeColor=#000000;strokeWidth=2;fontColor=#000000;fillColor=#FFFFFF;" parent="1" vertex="1">
          <mxGeometry x="310" y="295" width="30" height="60" as="geometry" />
        </mxCell>
        <mxCell id="192" value="Richiesta preventivo" style="ellipse;whiteSpace=wrap;html=1;strokeColor=#000000;strokeWidth=2;fontColor=#000000;fillColor=#FFFFFF;" parent="1" vertex="1">
          <mxGeometry x="860" y="285" width="140" height="70" as="geometry" />
        </mxCell>
        <mxCell id="266" value="" style="edgeStyle=orthogonalEdgeStyle;rounded=0;orthogonalLoop=1;jettySize=auto;html=1;" parent="1" source="194" target="207" edge="1">
          <mxGeometry relative="1" as="geometry" />
        </mxCell>
        <mxCell id="194" value="Consulta catalogo" style="ellipse;whiteSpace=wrap;html=1;strokeColor=#000000;strokeWidth=2;fontColor=#000000;fillColor=#FFFFFF;" parent="1" vertex="1">
          <mxGeometry x="430" y="285" width="140" height="70" as="geometry" />
        </mxCell>
        <mxCell id="195" value="Registra" style="ellipse;whiteSpace=wrap;html=1;strokeColor=#000000;strokeWidth=2;fontColor=#000000;fillColor=#FFFFFF;" parent="1" vertex="1">
          <mxGeometry x="1030" y="120" width="140" height="70" as="geometry" />
        </mxCell>
        <mxCell id="197" value="Segretario" style="shape=umlActor;verticalLabelPosition=bottom;verticalAlign=top;html=1;strokeColor=#000000;strokeWidth=2;fontColor=#000000;fillColor=#FFFFFF;" parent="1" vertex="1">
          <mxGeometry x="310" y="540" width="30" height="60" as="geometry" />
        </mxCell>
        <mxCell id="199" value="" style="endArrow=classic;html=1;rounded=0;strokeWidth=2;strokeColor=#191919;" parent="1" edge="1">
          <mxGeometry width="50" height="50" relative="1" as="geometry">
            <mxPoint x="270" y="450" as="sourcePoint" />
            <mxPoint x="200" y="450" as="targetPoint" />
          </mxGeometry>
        </mxCell>
        <mxCell id="200" value="" style="endArrow=classic;html=1;rounded=0;strokeWidth=2;strokeColor=#191919;" parent="1" edge="1">
          <mxGeometry width="50" height="50" relative="1" as="geometry">
            <mxPoint x="310" y="580" as="sourcePoint" />
            <mxPoint x="200" y="490" as="targetPoint" />
          </mxGeometry>
        </mxCell>
        <mxCell id="201" style="edgeStyle=orthogonalEdgeStyle;rounded=0;orthogonalLoop=1;jettySize=auto;html=1;strokeColor=#191919;strokeWidth=2;dashed=1;dashPattern=1 1;exitX=0;exitY=0.5;exitDx=0;exitDy=0;" parent="1" source="202" target="192" edge="1">
          <mxGeometry relative="1" as="geometry">
            <Array as="points">
              <mxPoint x="1020" y="265" />
              <mxPoint x="1020" y="320" />
            </Array>
          </mxGeometry>
        </mxCell>
        <mxCell id="202" value="Login" style="ellipse;whiteSpace=wrap;html=1;strokeColor=#000000;strokeWidth=2;fontColor=#000000;fillColor=#FFFFFF;" parent="1" vertex="1">
          <mxGeometry x="1030" y="230" width="140" height="70" as="geometry" />
        </mxCell>
        <mxCell id="203" value="&amp;lt;&amp;lt;include&amp;gt;&amp;gt;" style="text;html=1;strokeColor=none;fillColor=none;align=center;verticalAlign=middle;whiteSpace=wrap;rounded=0;fontColor=#3B3B3B;" parent="1" vertex="1">
          <mxGeometry x="870" y="250" width="60" height="30" as="geometry" />
        </mxCell>
        <mxCell id="204" style="edgeStyle=orthogonalEdgeStyle;rounded=0;orthogonalLoop=1;jettySize=auto;html=1;exitX=0.5;exitY=1;exitDx=0;exitDy=0;strokeColor=#191919;strokeWidth=2;fontColor=#3B3B3B;endArrow=none;endFill=0;" parent="1" source="202" target="202" edge="1">
          <mxGeometry relative="1" as="geometry" />
        </mxCell>
        <mxCell id="205" value="" style="endArrow=classic;html=1;rounded=0;strokeColor=#191919;strokeWidth=2;fontColor=#3B3B3B;dashed=1;dashPattern=1 1;" parent="1" source="195" target="202" edge="1">
          <mxGeometry width="50" height="50" relative="1" as="geometry">
            <mxPoint x="860" y="390" as="sourcePoint" />
            <mxPoint x="980" y="230" as="targetPoint" />
          </mxGeometry>
        </mxCell>
        <mxCell id="206" value="&amp;lt;&amp;lt;extends&amp;gt;&amp;gt;" style="text;html=1;strokeColor=none;fillColor=none;align=center;verticalAlign=middle;whiteSpace=wrap;rounded=0;fontColor=#3B3B3B;" parent="1" vertex="1">
          <mxGeometry x="1110" y="190" width="60" height="30" as="geometry" />
        </mxCell>
        <mxCell id="207" value="&amp;lt;&amp;lt;extends&amp;gt;&amp;gt;" style="text;html=1;strokeColor=none;fillColor=none;align=center;verticalAlign=middle;whiteSpace=wrap;rounded=0;fontColor=#3B3B3B;" parent="1" vertex="1">
          <mxGeometry x="760" y="270" width="90" height="50" as="geometry" />
        </mxCell>
        <mxCell id="208" value="Valuta usato" style="ellipse;whiteSpace=wrap;html=1;strokeColor=#000000;strokeWidth=2;fontColor=#000000;fillColor=#FFFFFF;" parent="1" vertex="1">
          <mxGeometry x="460" y="405" width="140" height="70" as="geometry" />
        </mxCell>
        <mxCell id="209" style="edgeStyle=orthogonalEdgeStyle;rounded=0;orthogonalLoop=1;jettySize=auto;html=1;strokeColor=#000000;strokeWidth=2;fontColor=#000000;endArrow=none;endFill=0;entryX=0;entryY=0.5;entryDx=0;entryDy=0;" parent="1" target="208" edge="1">
          <mxGeometry relative="1" as="geometry">
            <mxPoint x="360" y="440" as="sourcePoint" />
            <mxPoint x="470" y="330" as="targetPoint" />
          </mxGeometry>
        </mxCell>
        <mxCell id="210" value="Gestisci Preventivi" style="ellipse;whiteSpace=wrap;html=1;strokeColor=#000000;strokeWidth=2;fontColor=#000000;fillColor=#FFFFFF;" parent="1" vertex="1">
          <mxGeometry x="460" y="500" width="140" height="70" as="geometry" />
        </mxCell>
        <mxCell id="211" value="" style="endArrow=none;html=1;rounded=0;strokeColor=#191919;strokeWidth=2;fontColor=#3B3B3B;entryX=0;entryY=0.5;entryDx=0;entryDy=0;" parent="1" target="210" edge="1">
          <mxGeometry width="50" height="50" relative="1" as="geometry">
            <mxPoint x="360" y="440" as="sourcePoint" />
            <mxPoint x="500" y="520" as="targetPoint" />
          </mxGeometry>
        </mxCell>
        <mxCell id="212" value="Consulta Preventivi" style="ellipse;whiteSpace=wrap;html=1;strokeColor=#000000;strokeWidth=2;fontColor=#000000;fillColor=#FFFFFF;" parent="1" vertex="1">
          <mxGeometry x="460" y="590" width="140" height="70" as="geometry" />
        </mxCell>
        <mxCell id="213" value="Dettagli Preventivo" style="ellipse;whiteSpace=wrap;html=1;strokeColor=#000000;strokeWidth=2;fontColor=#000000;fillColor=#FFFFFF;" parent="1" vertex="1">
          <mxGeometry x="710" y="190" width="140" height="70" as="geometry" />
        </mxCell>
        <mxCell id="215" value="&amp;lt;&amp;lt;extends&amp;gt;&amp;gt;" style="text;html=1;strokeColor=none;fillColor=none;align=center;verticalAlign=middle;whiteSpace=wrap;rounded=0;fontColor=#3B3B3B;" parent="1" vertex="1">
          <mxGeometry x="620" y="200" width="60" height="30" as="geometry" />
        </mxCell>
        <mxCell id="216" value="" style="endArrow=none;html=1;rounded=0;strokeColor=#191919;strokeWidth=2;fontColor=#3B3B3B;entryX=0;entryY=0.5;entryDx=0;entryDy=0;" parent="1" target="212" edge="1">
          <mxGeometry width="50" height="50" relative="1" as="geometry">
            <mxPoint x="360" y="570" as="sourcePoint" />
            <mxPoint x="460" y="570" as="targetPoint" />
          </mxGeometry>
        </mxCell>
        <mxCell id="217" value="Modifica catalogo" style="ellipse;whiteSpace=wrap;html=1;strokeColor=#000000;strokeWidth=2;fontColor=#000000;fillColor=#FFFFFF;" parent="1" vertex="1">
          <mxGeometry x="460" y="670" width="140" height="70" as="geometry" />
        </mxCell>
        <mxCell id="218" value="Modifica modello" style="ellipse;whiteSpace=wrap;html=1;strokeColor=#000000;strokeWidth=2;fontColor=#000000;fillColor=#FFFFFF;" parent="1" vertex="1">
          <mxGeometry x="710" y="750" width="140" height="70" as="geometry" />
        </mxCell>
        <mxCell id="219" value="" style="endArrow=none;html=1;rounded=0;strokeColor=#191919;strokeWidth=2;fontColor=#3B3B3B;entryX=0;entryY=0.5;entryDx=0;entryDy=0;" parent="1" target="217" edge="1">
          <mxGeometry width="50" height="50" relative="1" as="geometry">
            <mxPoint x="360" y="570" as="sourcePoint" />
            <mxPoint x="470" y="635" as="targetPoint" />
          </mxGeometry>
        </mxCell>
        <mxCell id="220" value="" style="endArrow=classic;html=1;rounded=0;strokeColor=#191919;strokeWidth=2;fontColor=#3B3B3B;entryX=1;entryY=0.5;entryDx=0;entryDy=0;exitX=0;exitY=0.5;exitDx=0;exitDy=0;dashed=1;dashPattern=1 1;" parent="1" source="218" target="217" edge="1">
          <mxGeometry width="50" height="50" relative="1" as="geometry">
            <mxPoint x="720" y="660" as="sourcePoint" />
            <mxPoint x="770" y="610" as="targetPoint" />
          </mxGeometry>
        </mxCell>
        <mxCell id="221" value="&amp;lt;&amp;lt;extends&amp;gt;&amp;gt;" style="text;html=1;strokeColor=none;fillColor=none;align=center;verticalAlign=middle;whiteSpace=wrap;rounded=0;fontColor=#3B3B3B;" parent="1" vertex="1">
          <mxGeometry x="630" y="680" width="60" height="30" as="geometry" />
        </mxCell>
        <mxCell id="222" value="&lt;font style=&quot;font-size: 19px;&quot;&gt;Concessionario&lt;/font&gt;" style="text;html=1;strokeColor=none;fillColor=none;align=center;verticalAlign=middle;whiteSpace=wrap;rounded=0;fontColor=#3B3B3B;strokeWidth=3;fontSize=19;fontStyle=1" parent="1" vertex="1">
          <mxGeometry x="775" y="90" width="60" height="30" as="geometry" />
        </mxCell>
        <mxCell id="223" value="Consulta Preventivi" style="ellipse;whiteSpace=wrap;html=1;strokeColor=#000000;strokeWidth=2;fontColor=#000000;fillColor=#FFFFFF;" parent="1" vertex="1">
          <mxGeometry x="460" y="190" width="140" height="70" as="geometry" />
        </mxCell>
        <mxCell id="224" value="" style="endArrow=none;html=1;rounded=0;strokeColor=#191919;strokeWidth=2;fontSize=16;fontColor=#0D0D0D;entryX=0;entryY=0.5;entryDx=0;entryDy=0;" parent="1" target="223" edge="1">
          <mxGeometry width="50" height="50" relative="1" as="geometry">
            <mxPoint x="360" y="320" as="sourcePoint" />
            <mxPoint x="450" y="240" as="targetPoint" />
          </mxGeometry>
        </mxCell>
        <mxCell id="227" value="" style="endArrow=classic;html=1;rounded=0;strokeWidth=2;strokeColor=#191919;" parent="1" edge="1">
          <mxGeometry width="50" height="50" relative="1" as="geometry">
            <mxPoint x="300" y="330" as="sourcePoint" />
            <mxPoint x="200" y="400" as="targetPoint" />
          </mxGeometry>
        </mxCell>
        <mxCell id="228" value="Persona&lt;br&gt;" style="shape=umlActor;verticalLabelPosition=bottom;verticalAlign=top;html=1;strokeColor=#000000;strokeWidth=2;fontColor=#000000;fillColor=#FFFFFF;" parent="1" vertex="1">
          <mxGeometry x="160" y="410" width="30" height="60" as="geometry" />
        </mxCell>
        <mxCell id="235" style="edgeStyle=orthogonalEdgeStyle;rounded=0;orthogonalLoop=1;jettySize=auto;html=1;strokeColor=#191919;strokeWidth=2;dashed=1;dashPattern=1 1;exitX=0;exitY=0.5;exitDx=0;exitDy=0;" parent="1" source="202" target="213" edge="1">
          <mxGeometry relative="1" as="geometry">
            <mxPoint x="900" y="260" as="sourcePoint" />
            <mxPoint x="860" y="330" as="targetPoint" />
            <Array as="points">
              <mxPoint x="980" y="265" />
              <mxPoint x="980" y="225" />
            </Array>
          </mxGeometry>
        </mxCell>
        <mxCell id="236" value="Inserisci/Gestisci optional" style="ellipse;whiteSpace=wrap;html=1;strokeColor=#000000;strokeWidth=2;fontColor=#000000;fillColor=#FFFFFF;" parent="1" vertex="1">
          <mxGeometry x="940" y="720" width="140" height="70" as="geometry" />
        </mxCell>
        <mxCell id="238" value="Inserisci modello" style="ellipse;whiteSpace=wrap;html=1;strokeColor=#000000;strokeWidth=2;fontColor=#000000;fillColor=#FFFFFF;" parent="1" vertex="1">
          <mxGeometry x="710" y="670" width="140" height="70" as="geometry" />
        </mxCell>
        <mxCell id="240" value="" style="endArrow=classic;html=1;rounded=0;strokeColor=#191919;strokeWidth=2;fontColor=#3B3B3B;exitX=0;exitY=0.5;exitDx=0;exitDy=0;dashed=1;dashPattern=1 1;" parent="1" source="238" edge="1">
          <mxGeometry width="50" height="50" relative="1" as="geometry">
            <mxPoint x="780" y="715" as="sourcePoint" />
            <mxPoint x="600" y="705" as="targetPoint" />
          </mxGeometry>
        </mxCell>
        <mxCell id="241" value="&amp;lt;&amp;lt;extends&amp;gt;&amp;gt;" style="text;html=1;strokeColor=none;fillColor=none;align=center;verticalAlign=middle;whiteSpace=wrap;rounded=0;fontColor=#3B3B3B;" parent="1" vertex="1">
          <mxGeometry x="600" y="750" width="60" height="30" as="geometry" />
        </mxCell>
        <mxCell id="242" value="" style="endArrow=classic;html=1;rounded=0;strokeColor=#191919;strokeWidth=2;fontColor=#3B3B3B;entryX=1;entryY=0.5;entryDx=0;entryDy=0;exitX=0;exitY=0.5;exitDx=0;exitDy=0;dashed=1;dashPattern=1 1;" parent="1" source="236" target="238" edge="1">
          <mxGeometry width="50" height="50" relative="1" as="geometry">
            <mxPoint x="780" y="715" as="sourcePoint" />
            <mxPoint x="610" y="715" as="targetPoint" />
          </mxGeometry>
        </mxCell>
        <mxCell id="243" value="" style="endArrow=classic;html=1;rounded=0;strokeColor=#191919;strokeWidth=2;fontColor=#3B3B3B;entryX=1;entryY=0.5;entryDx=0;entryDy=0;exitX=0;exitY=0.5;exitDx=0;exitDy=0;dashed=1;dashPattern=1 1;" parent="1" source="236" target="218" edge="1">
          <mxGeometry width="50" height="50" relative="1" as="geometry">
            <mxPoint x="930" y="625" as="sourcePoint" />
            <mxPoint x="830" y="625" as="targetPoint" />
          </mxGeometry>
        </mxCell>
        <mxCell id="244" value="&amp;lt;&amp;lt;extends&amp;gt;&amp;gt;" style="text;html=1;strokeColor=none;fillColor=none;align=center;verticalAlign=middle;whiteSpace=wrap;rounded=0;fontColor=#3B3B3B;" parent="1" vertex="1">
          <mxGeometry x="880" y="700" width="60" height="30" as="geometry" />
        </mxCell>
        <mxCell id="245" value="&amp;lt;&amp;lt;extends&amp;gt;&amp;gt;" style="text;html=1;strokeColor=none;fillColor=none;align=center;verticalAlign=middle;whiteSpace=wrap;rounded=0;fontColor=#3B3B3B;" parent="1" vertex="1">
          <mxGeometry x="870" y="780" width="60" height="30" as="geometry" />
        </mxCell>
        <mxCell id="246" value="Notifica cliente" style="ellipse;whiteSpace=wrap;html=1;strokeColor=#000000;strokeWidth=2;fontColor=#000000;fillColor=#FFFFFF;" parent="1" vertex="1">
          <mxGeometry x="710" y="500" width="140" height="70" as="geometry" />
        </mxCell>
        <mxCell id="247" value="" style="endArrow=classic;html=1;rounded=0;dashed=1;dashPattern=1 1;strokeColor=#191919;strokeWidth=2;fontColor=#3B3B3B;entryX=1;entryY=0.5;entryDx=0;entryDy=0;exitX=0;exitY=0.5;exitDx=0;exitDy=0;" parent="1" source="246" target="210" edge="1">
          <mxGeometry width="50" height="50" relative="1" as="geometry">
            <mxPoint x="600" y="535" as="sourcePoint" />
            <mxPoint x="810" y="570" as="targetPoint" />
          </mxGeometry>
        </mxCell>
        <mxCell id="248" value="&amp;lt;&amp;lt;extends&amp;gt;&amp;gt;" style="text;html=1;strokeColor=none;fillColor=none;align=center;verticalAlign=middle;whiteSpace=wrap;rounded=0;fontColor=#3B3B3B;" parent="1" vertex="1">
          <mxGeometry x="630" y="510" width="60" height="30" as="geometry" />
        </mxCell>
        <mxCell id="254" style="edgeStyle=orthogonalEdgeStyle;rounded=0;orthogonalLoop=1;jettySize=auto;html=1;strokeColor=#191919;strokeWidth=2;dashed=1;dashPattern=1 1;exitX=0;exitY=0.5;exitDx=0;exitDy=0;entryX=1;entryY=0.5;entryDx=0;entryDy=0;" parent="1" source="192" target="265" edge="1">
          <mxGeometry relative="1" as="geometry">
            <mxPoint x="700" y="320" as="sourcePoint" />
            <mxPoint x="600" y="320" as="targetPoint" />
          </mxGeometry>
        </mxCell>
        <mxCell id="255" style="edgeStyle=orthogonalEdgeStyle;rounded=0;orthogonalLoop=1;jettySize=auto;html=1;strokeColor=#191919;strokeWidth=2;dashed=1;dashPattern=1 1;exitX=0;exitY=0.5;exitDx=0;exitDy=0;" parent="1" edge="1">
          <mxGeometry relative="1" as="geometry">
            <mxPoint x="710.0000000000016" y="224.57999999999998" as="sourcePoint" />
            <mxPoint x="600" y="224.57999999999998" as="targetPoint" />
          </mxGeometry>
        </mxCell>
        <mxCell id="256" value="Dettagli preventivo" style="ellipse;whiteSpace=wrap;html=1;strokeColor=#000000;strokeWidth=2;fontColor=#000000;fillColor=#FFFFFF;" parent="1" vertex="1">
          <mxGeometry x="710" y="590" width="140" height="70" as="geometry" />
        </mxCell>
        <mxCell id="257" value="&amp;lt;&amp;lt;extends&amp;gt;&amp;gt;" style="text;html=1;strokeColor=none;fillColor=none;align=center;verticalAlign=middle;whiteSpace=wrap;rounded=0;fontColor=#3B3B3B;" parent="1" vertex="1">
          <mxGeometry x="620" y="600" width="60" height="30" as="geometry" />
        </mxCell>
        <mxCell id="258" style="edgeStyle=orthogonalEdgeStyle;rounded=0;orthogonalLoop=1;jettySize=auto;html=1;strokeColor=#191919;strokeWidth=2;dashed=1;dashPattern=1 1;exitX=0;exitY=0.5;exitDx=0;exitDy=0;" parent="1" source="256" target="212" edge="1">
          <mxGeometry relative="1" as="geometry">
            <mxPoint x="710.0000000000016" y="630" as="sourcePoint" />
            <mxPoint x="600" y="630" as="targetPoint" />
          </mxGeometry>
        </mxCell>
        <mxCell id="259" value="Richiedi valutazione auto usata" style="ellipse;whiteSpace=wrap;html=1;strokeColor=#000000;strokeWidth=2;fontColor=#000000;fillColor=#FFFFFF;" parent="1" vertex="1">
          <mxGeometry x="1050" y="355" width="150" height="75" as="geometry" />
        </mxCell>
        <mxCell id="260" style="edgeStyle=orthogonalEdgeStyle;rounded=0;orthogonalLoop=1;jettySize=auto;html=1;strokeColor=#191919;strokeWidth=2;dashed=1;dashPattern=1 1;exitX=0;exitY=0.5;exitDx=0;exitDy=0;entryX=0.5;entryY=1;entryDx=0;entryDy=0;" parent="1" source="259" target="192" edge="1">
          <mxGeometry relative="1" as="geometry">
            <mxPoint x="720.0000000000016" y="330" as="sourcePoint" />
            <mxPoint x="610" y="330" as="targetPoint" />
            <Array as="points">
              <mxPoint x="1050" y="390" />
              <mxPoint x="930" y="390" />
            </Array>
          </mxGeometry>
        </mxCell>
        <mxCell id="261" value="&amp;lt;&amp;lt;extends&amp;gt;&amp;gt;" style="text;html=1;strokeColor=none;fillColor=none;align=center;verticalAlign=middle;whiteSpace=wrap;rounded=0;fontColor=#3B3B3B;" parent="1" vertex="1">
          <mxGeometry x="950" y="390" width="60" height="30" as="geometry" />
        </mxCell>
        <mxCell id="265" value="Configura auto" style="ellipse;whiteSpace=wrap;html=1;strokeColor=#000000;strokeWidth=2;fontColor=#000000;fillColor=#FFFFFF;" parent="1" vertex="1">
          <mxGeometry x="630" y="285" width="140" height="70" as="geometry" />
        </mxCell>
        <mxCell id="267" style="edgeStyle=orthogonalEdgeStyle;rounded=0;orthogonalLoop=1;jettySize=auto;html=1;strokeColor=#191919;strokeWidth=2;dashed=1;dashPattern=1 1;exitX=0;exitY=0.5;exitDx=0;exitDy=0;entryX=1;entryY=0.5;entryDx=0;entryDy=0;" parent="1" source="265" target="194" edge="1">
          <mxGeometry relative="1" as="geometry">
            <mxPoint x="850" y="325" as="sourcePoint" />
            <mxPoint x="780" y="325" as="targetPoint" />
          </mxGeometry>
        </mxCell>
        <mxCell id="268" value="&amp;lt;&amp;lt;extends&amp;gt;&amp;gt;" style="text;html=1;strokeColor=none;fillColor=none;align=center;verticalAlign=middle;whiteSpace=wrap;rounded=0;fontColor=#3B3B3B;" parent="1" vertex="1">
          <mxGeometry x="550" y="270" width="90" height="50" as="geometry" />
        </mxCell>
      </root>
    </mxGraphModel>
  </diagram>
</mxfile>
